<svg fill="none" height="88" width="88" xmlns="http://www.w3.org/2000/svg" xmlns:xlink="http://www.w3.org/1999/xlink"><clipPath id="a"><path d="m0 0h87.5v87.5h-87.5z" transform="translate(.25 .5)"/></clipPath><filter id="b" color-interpolation-filters="sRGB" filterUnits="userSpaceOnUse" height="56.657" width="62.125" x="12.923" y="16.407"><feFlood flood-opacity="0" result="BackgroundImageFix"/><feColorMatrix in="SourceAlpha" values="0 0 0 0 0 0 0 0 0 0 0 0 0 0 0 0 0 0 127 0"/><feOffset dy=".5"/><feGaussianBlur stdDeviation=".5"/><feColorMatrix values="0 0 0 0 0 0 0 0 0 0 0 0 0 0 0 0 0 0 0.204257 0"/><feBlend in2="BackgroundImageFix" result="effect1_dropShadow"/><feBlend in="SourceGraphic" in2="effect1_dropShadow" result="shape"/></filter><g clip-path="url(#a)"><path d="m44 88c24.162 0 43.75-19.588 43.75-43.75 0-24.163-19.588-43.75-43.75-43.75-24.163 0-43.75 19.587-43.75 43.75 0 24.162 19.587 43.75 43.75 43.75z" fill="#0d1e30"/><g filter="url(#b)"><path d="m43.248 17.07c1.31-.675 2.91.886 2.215 2.174-.408 1.05-1.941 1.33-2.724.528-.828-.766-.557-2.286.509-2.704zm-14.096 1.493c.796-.322 1.805.394 1.723 1.25.082.924-1.066 1.608-1.878 1.168-1.075-.41-.952-2.128.155-2.418zm28.87 2.442c-1.244-.148-1.441-2.073-.246-2.46.93-.444 1.783.39 1.92 1.257-.198.738-.826 1.416-1.674 1.203zm-25.662 3.46c1.331-.83 3.229.404 3.024 1.927-.068 1.534-2.141 2.425-3.311 1.386-1.132-.815-.96-2.685.287-3.314zm20.316.88c.593-1.504 3-1.554 3.675-.088.67 1.14-.153 2.554-1.342 2.942-1.578.29-3.074-1.389-2.333-2.854zm-11.126 2.77c-.014-1.297 1.184-2.26 2.434-2.35.83.165 1.733.512 2.089 1.335.664 1.137.074 2.699-1.121 3.221-.547.3-1.198.189-1.794.153-.91-.437-1.68-1.304-1.608-2.36zm-20.962 1.885c1.217-.738 2.858.602 2.396 1.903-.252 1.124-1.789 1.58-2.667.864-.937-.672-.79-2.288.274-2.77zm45.014-.005c1.03-.788 2.734.117 2.608 1.397.071 1.168-1.403 2.05-2.425 1.45-1.127-.501-1.244-2.207-.183-2.845zm-18.157 2.327c1.701-.602 3.724.117 4.693 1.613 1.28 1.824.601 4.602-1.387 5.65-2.056 1.238-5.061.19-5.824-2.073-.861-2.024.396-4.556 2.516-5.19zm-9.988.2c1.886-.876 4.427-.143 5.337 1.755 1.072 1.848.244 4.421-1.673 5.376-1.92 1.074-4.63.26-5.557-1.723-1.041-1.92-.117-4.525 1.893-5.409zm-10 3.36c.145-1.195 1.29-1.974 2.447-2.056a2.68 2.68 0 0 1 2.38 2.343c-.083 1.23-1.048 2.428-2.371 2.423-1.458.123-2.735-1.305-2.456-2.71zm29.537-1.794c1.495-.856 3.57.388 3.505 2.078.101 1.791-2.196 3.052-3.683 2.002-1.548-.875-1.427-3.336.178-4.08zm-23.598 6.308c1.745-.473 3.746.337 4.602 1.917.938 1.592.555 3.8-.902 4.971-1.873 1.712-5.321 1.023-6.317-1.312-1.145-2.141.246-5.012 2.614-5.578zm18.941-.008c1.698-.478 3.694.164 4.607 1.687 1.21 1.742.632 4.342-1.164 5.463-1.887 1.305-4.802.621-5.841-1.419-1.258-2.108.008-5.088 2.398-5.73zm-30.187 1.986c1.509-.56 3.182 1.078 2.57 2.551-.372 1.34-2.294 1.838-3.287.848-1.162-.93-.733-2.994.717-3.399zm40.93 2.139a2.286 2.286 0 0 1 2.155-2.39c1.034.164 2.04.984 1.958 2.092.096 1.462-1.695 2.455-2.964 1.769-.593-.298-.897-.897-1.149-1.471zm-48.354-1.411c.908-.391 2.031.382 1.824 1.375-.05 1.124-1.737 1.559-2.355.618-.547-.654-.219-1.657.53-1.996v.003zm57.282-.025c.64-.446 1.668-.126 1.92.61.429.804-.358 1.903-1.277 1.769-1.29.115-1.706-1.819-.643-2.379zm-33.68 5.395c2.39-.61 4.961 1.35 4.977 3.773.154 2.448-2.379 4.616-4.823 4.053-1.892-.301-3.377-2.095-3.314-3.973-.005-1.8 1.373-3.473 3.16-3.853zm9.467-.003c2.426-.667 5.072 1.33 5.034 3.806.129 2.401-2.324 4.498-4.72 4.02-2.255-.284-3.918-2.72-3.289-4.876.318-1.432 1.537-2.597 2.975-2.953zm-18.254 1.49c1.678-.281 3.253 1.559 2.573 3.128-.498 1.674-2.97 2.125-4.064.76-1.28-1.312-.322-3.707 1.49-3.888zm27.764.074c1.499-.618 3.336.657 3.221 2.256.06 1.758-2.209 2.972-3.672 1.944-1.66-.921-1.356-3.636.451-4.2zm7.76 7.657c-.585-1.075.48-2.5 1.696-2.3.602-.011 1.025.456 1.41.85.08.637.214 1.398-.325 1.887-.73.91-2.384.65-2.78-.438zm-44.482-2.002c1.135-.741 2.767.366 2.51 1.668-.137 1.157-1.613 1.816-2.584 1.16-1.045-.594-1.006-2.287.074-2.828zm22.403 2.414c1.484-.642 3.377.63 3.234 2.237.11 1.777-2.228 3.008-3.68 1.942-1.614-.916-1.343-3.613.446-4.179zm-10.376 2.382c1.264-.654 2.959.476 2.844 1.87.038 1.143-1.094 2.117-2.242 1.947-.949-.019-1.567-.858-1.873-1.654.016-.867.38-1.832 1.271-2.16zm21.017.022c1.301-.793 3.15.344 3.027 1.832.032 1.559-2.057 2.554-3.268 1.531-1.17-.801-1.028-2.726.24-3.363zm3.656 8.887c-.58-.859.1-1.895 1.039-2.092.757.15 1.558.71 1.397 1.57-.11 1.167-1.843 1.522-2.436.524zm-29.015-.747c.23-.683.788-1.359 1.605-1.181 1.19.082 1.542 1.848.5 2.392-.935.621-2.023-.23-2.105-1.21zm14 .785c.227-1.012 1.553-1.501 2.428-.965.58.246.75.88.897 1.422-.078.28-.15.563-.219.847-.358.416-.82.834-1.416.82-1.108.129-2.108-1.104-1.693-2.124z" fill="#000"/></g><path d="m43.248 17.07c1.31-.675 2.91.886 2.215 2.174-.408 1.05-1.941 1.33-2.724.528-.828-.766-.557-2.286.509-2.704zm-14.096 1.493c.796-.322 1.805.394 1.723 1.25.082.924-1.066 1.608-1.878 1.168-1.075-.41-.952-2.128.155-2.418zm28.87 2.442c-1.244-.148-1.441-2.073-.246-2.46.93-.444 1.783.39 1.92 1.257-.198.738-.826 1.416-1.674 1.203zm-25.662 3.46c1.331-.83 3.229.404 3.024 1.927-.068 1.534-2.141 2.425-3.311 1.386-1.132-.815-.96-2.685.287-3.314zm20.316.88c.593-1.504 3-1.554 3.675-.088.67 1.14-.153 2.554-1.342 2.942-1.578.29-3.074-1.389-2.333-2.854zm-11.126 2.77c-.014-1.297 1.184-2.26 2.434-2.35.83.165 1.733.512 2.089 1.335.664 1.137.074 2.699-1.121 3.221-.547.3-1.198.189-1.794.153-.91-.437-1.68-1.304-1.608-2.36zm-20.962 1.885c1.217-.738 2.858.602 2.396 1.903-.252 1.124-1.789 1.58-2.667.864-.937-.672-.79-2.288.274-2.77zm45.014-.005c1.03-.788 2.734.117 2.608 1.397.071 1.168-1.403 2.05-2.425 1.45-1.127-.501-1.244-2.207-.183-2.845zm-18.157 2.327c1.701-.602 3.724.117 4.693 1.613 1.28 1.824.601 4.602-1.387 5.65-2.056 1.238-5.061.19-5.824-2.073-.861-2.024.396-4.556 2.516-5.19zm-9.988.2c1.886-.876 4.427-.143 5.337 1.755 1.072 1.848.244 4.421-1.673 5.376-1.92 1.074-4.63.26-5.557-1.723-1.041-1.92-.117-4.525 1.893-5.409zm-10 3.36c.145-1.195 1.29-1.974 2.447-2.056a2.68 2.68 0 0 1 2.38 2.343c-.083 1.23-1.048 2.428-2.371 2.423-1.458.123-2.735-1.305-2.456-2.71zm29.537-1.794c1.495-.856 3.57.388 3.505 2.078.101 1.791-2.196 3.052-3.683 2.002-1.548-.875-1.427-3.336.178-4.08zm-23.598 6.308c1.745-.473 3.746.337 4.602 1.917.938 1.592.555 3.8-.902 4.971-1.873 1.712-5.321 1.023-6.317-1.312-1.145-2.141.246-5.012 2.614-5.578zm18.941-.008c1.698-.478 3.694.164 4.607 1.687 1.21 1.742.632 4.342-1.164 5.463-1.887 1.305-4.802.621-5.841-1.419-1.258-2.108.008-5.088 2.398-5.73zm-30.187 1.986c1.509-.56 3.182 1.078 2.57 2.551-.372 1.34-2.294 1.838-3.287.848-1.162-.93-.733-2.994.717-3.399zm40.93 2.139a2.286 2.286 0 0 1 2.155-2.39c1.034.164 2.04.984 1.958 2.092.096 1.462-1.695 2.455-2.964 1.769-.593-.298-.897-.897-1.149-1.471zm-48.354-1.411c.908-.391 2.031.382 1.824 1.375-.05 1.124-1.737 1.559-2.355.618-.547-.654-.219-1.657.53-1.996v.003zm57.282-.025c.64-.446 1.668-.126 1.92.61.429.804-.358 1.903-1.277 1.769-1.29.115-1.706-1.819-.643-2.379zm-33.68 5.395c2.39-.61 4.961 1.35 4.977 3.773.154 2.448-2.379 4.616-4.823 4.053-1.892-.301-3.377-2.095-3.314-3.973-.005-1.8 1.373-3.473 3.16-3.853zm9.467-.003c2.426-.667 5.072 1.33 5.034 3.806.129 2.401-2.324 4.498-4.72 4.02-2.255-.284-3.918-2.72-3.289-4.876.318-1.432 1.537-2.597 2.975-2.953zm-18.254 1.49c1.678-.281 3.253 1.559 2.573 3.128-.498 1.674-2.97 2.125-4.064.76-1.28-1.312-.322-3.707 1.49-3.888zm27.764.074c1.499-.618 3.336.657 3.221 2.256.06 1.758-2.209 2.972-3.672 1.944-1.66-.921-1.356-3.636.451-4.2zm7.76 7.657c-.585-1.075.48-2.5 1.696-2.3.602-.011 1.025.456 1.41.85.08.637.214 1.398-.325 1.887-.73.91-2.384.65-2.78-.438zm-44.482-2.002c1.135-.741 2.767.366 2.51 1.668-.137 1.157-1.613 1.816-2.584 1.16-1.045-.594-1.006-2.287.074-2.828zm22.403 2.414c1.484-.642 3.377.63 3.234 2.237.11 1.777-2.228 3.008-3.68 1.942-1.614-.916-1.343-3.613.446-4.179zm-10.376 2.382c1.264-.654 2.959.476 2.844 1.87.038 1.143-1.094 2.117-2.242 1.947-.949-.019-1.567-.858-1.873-1.654.016-.867.38-1.832 1.271-2.16zm21.017.022c1.301-.793 3.15.344 3.027 1.832.032 1.559-2.057 2.554-3.268 1.531-1.17-.801-1.028-2.726.24-3.363zm3.656 8.887c-.58-.859.1-1.895 1.039-2.092.757.15 1.558.71 1.397 1.57-.11 1.167-1.843 1.522-2.436.524zm-29.015-.747c.23-.683.788-1.359 1.605-1.181 1.19.082 1.542 1.848.5 2.392-.935.621-2.023-.23-2.105-1.21zm14 .785c.227-1.012 1.553-1.501 2.428-.965.58.246.75.88.897 1.422-.078.28-.15.563-.219.847-.358.416-.82.834-1.416.82-1.108.129-2.108-1.104-1.693-2.124z" fill="#fff"/></g></svg>