<svg fill="none" height="72" width="72" xmlns="http://www.w3.org/2000/svg"><path d="m36 72c19.882 0 36-16.118 36-36s-16.118-36-36-36-36 16.118-36 36 16.118 36 36 36z" fill="#2e3148"/><g fill="#fff"><path d="m36.045 12.443c-2.914 0-5.277 10.568-5.277 23.602s2.363 23.602 5.277 23.602c2.911 0 5.274-10.568 5.274-23.602s-2.363-23.602-5.274-23.602zm.364 45.87c-.333.446-.668.113-.668.113-1.341-1.557-2.011-4.444-2.011-4.444-2.347-7.553-1.79-23.769-1.79-23.769 1.103-12.872 3.11-15.914 3.792-16.59a.416.416 0 0 1 .535-.042c.99.704 1.823 3.638 1.823 3.638 2.452 9.108 2.23 17.658 2.23 17.658.222 7.443-1.229 15.773-1.229 15.773-1.118 6.331-2.682 7.663-2.682 7.663z"/><path d="m56.516 24.3c-1.452-2.529-11.79.682-23.101 7.169-11.311 6.486-19.29 13.792-17.843 16.321 1.451 2.53 11.793-.682 23.103-7.168 11.311-6.487 19.292-13.795 17.843-16.322zm-39.607 23.141c-.554-.067-.428-.526-.428-.526.68-1.935 2.849-3.956 2.849-3.956 5.384-5.793 19.73-13.378 19.73-13.378 11.713-5.45 15.352-5.22 16.274-4.968a.416.416 0 0 1 .304.445c-.112 1.209-2.25 3.391-2.25 3.391-6.673 6.662-14.202 10.728-14.202 10.728-6.345 3.897-14.294 6.78-14.294 6.78-6.048 2.177-7.983 1.484-7.983 1.484z"/><path d="m56.464 47.873c1.462-2.52-6.496-9.861-17.77-16.398-11.273-6.534-21.61-9.783-23.07-7.258-1.462 2.527 6.498 9.861 17.775 16.398 11.28 6.534 21.605 9.783 23.065 7.258zm-39.87-22.682c-.218-.513.238-.637.238-.637 2.019-.382 4.854.489 4.854.489 7.71 1.755 21.46 10.367 21.46 10.367 10.587 7.409 12.211 10.672 12.454 11.598a.416.416 0 0 1 -.232.484c-1.102.506-4.061-.248-4.061-.248-9.113-2.443-16.4-6.919-16.4-6.919-6.548-3.532-13.023-8.966-13.023-8.966-4.921-4.144-5.288-6.165-5.288-6.165l-.004-.002h.002z"/><path d="m35.99 38.765a2.777 2.777 0 1 0 0-5.553 2.777 2.777 0 0 0 0 5.553zm11.384-11.189a2.25 2.25 0 1 0 0-4.5 2.25 2.25 0 0 0 0 4.5zm-26.435 5.666a2.25 2.25 0 1 0 0-4.5 2.25 2.25 0 0 0 0 4.5zm11.774 20.434a2.25 2.25 0 1 0 0-4.5 2.25 2.25 0 0 0 0 4.5z"/></g></svg>