<svg width="88" height="88" fill="none" xmlns="http://www.w3.org/2000/svg"><path d="M44 88c24.3 0 44-19.7 44-44S68.3 0 44 0 0 19.7 0 44s19.7 44 44 44z" fill="#F7931A"/><path d="M64.103 38.93c.858-5.731-3.508-8.813-9.475-10.87l1.936-7.765-4.725-1.176-1.886 7.56c-1.242-.31-2.516-.6-3.788-.89l1.9-7.61L43.341 17l-1.936 7.763c-1.028-.235-2.04-.465-3.019-.71l.005-.025-6.518-1.627-1.258 5.047s3.508.804 3.434.853c1.914.479 2.259 1.745 2.202 2.751l-2.204 8.846c.13.033.3.082.492.156l-.5-.123-3.09 12.392c-.236.58-.829 1.452-2.169 1.121.05.068-3.434-.856-3.434-.856L23 57.997l6.152 1.534c1.143.287 2.264.588 3.366.87l-1.955 7.852 4.722 1.176 1.936-7.765c1.29.347 2.543.67 3.768.976l-1.93 7.732 4.725 1.176 1.955-7.836c8.06 1.525 14.12.91 16.671-6.38 2.056-5.868-.1-9.256-4.342-11.462 3.09-.711 5.414-2.743 6.035-6.94zm-10.8 15.143c-1.458 5.87-11.343 2.696-14.548 1.9l2.598-10.404c3.204.801 13.478 2.384 11.95 8.504zm1.462-15.229c-1.332 5.34-9.557 2.625-12.223 1.96l2.352-9.433c2.666.665 11.26 1.903 9.871 7.473z" fill="#fff"/></svg>