<svg width="88" height="88" fill="none" xmlns="http://www.w3.org/2000/svg"><path d="M44 88c24.3 0 44-19.7 44-44S68.3 0 44 0 0 19.7 0 44s19.7 44 44 44z" fill="#0A0A0A"/><path d="M73.381 37.97a29.867 29.867 0 00-1.754-5.63 29.811 29.811 0 00-6.43-9.539 29.81 29.81 0 00-9.535-6.43 29.867 29.867 0 00-23.322 0 29.803 29.803 0 00-9.539 6.43 29.81 29.81 0 00-6.43 9.54 29.868 29.868 0 000 23.321c.74 1.785 1.693 3.476 2.768 5.107a29.798 29.798 0 003.662 4.433 29.81 29.81 0 009.54 6.428 29.867 29.867 0 0023.321 0 29.809 29.809 0 009.54-6.431 29.809 29.809 0 006.428-9.537 29.868 29.868 0 001.754-17.691h-.003zM44.03 70.246c-14.493 0-26.214-11.751-26.214-26.214 0-14.46 11.754-26.213 26.214-26.213 14.462 0 26.214 11.754 26.214 26.213 0 14.463-11.752 26.214-26.214 26.214z" fill="#fff"/><path d="M44.49 67.97h.71c.124 0 .247 0 .367-.03h.033c.121 0 .214 0 .338-.033h.093c.09 0 .183 0 .274-.027h.093c.093 0 .186-.033.31-.033h.06c.123 0 .247-.03.37-.03.124 0 .214-.033.337-.063h.063c.09 0 .184-.03.275-.03h.063c.123-.03.216-.03.34-.06.246-.034.493-.094.707-.157h.06c.093-.028.217-.028.31-.06h.027l.71-.184a27.51 27.51 0 01-6.861-.647c-3.385-.74-6.614-2.061-9.353-4.34a18.956 18.956 0 01-6.83-14.736A17.908 17.908 0 0131.2 36.093c3.509-4.153 8.49-6.338 13.596-6.46h.71V25.54h-.8c-1.554.028-3.1.214-4.616.553-1.535.34-3.016.864-4.43 1.508a22.674 22.674 0 00-4.063 2.462 21.656 21.656 0 00-3.536 3.385 20.828 20.828 0 00-2.554 3.783c-.708 1.294-1.261 2.678-1.692 4.092a22.358 22.358 0 00-.83 4.276l-.093 1.355v.8c.028 1.553.214 3.1.553 4.616.337 1.538.861 3.015 1.508 4.43.767 1.694 2.154 4.186 4.216 6.06a23.799 23.799 0 0014.767 5.11h.553z" fill="#fff"/><path d="M51.197 64.031a31.292 31.292 0 01-4.523-.493C40.336 62.4 34.889 58.52 32.89 52.678c-2.431-7.109 1.291-14.8 8.369-17.139a13.091 13.091 0 014.183-.677c1.817 0 3.632.37 5.293 1.047l1.724-3.662a33.134 33.134 0 00-1.57-.584 18.126 18.126 0 00-5.447-.83c-1.845 0-3.69.307-5.444.89a17.115 17.115 0 00-6.064 3.51c-.83.74-1.628 1.6-2.305 2.494-.677.89-1.26 1.845-1.754 2.859a17.348 17.348 0 00-1.724 6.491 17.483 17.483 0 00.923 6.894c.768 2.245 2.001 4.306 3.693 6.121 1.507 1.631 3.262 2.862 5.383 4.002 2.215 1.168 4.954 1.782 7.816 2.182 1.847.247 4.309.31 5.756.31 1.26-.463 1.782-.677 2.459-.954.584-.277 1.17-.554 1.754-.894.584-.337.677-.4 1.661-1.044.093-.063.184-.123.247-.186-3.385.583-4.249.553-6.647.523z" fill="#fff"/><path d="M58.77 59.448c-.955.06-2.309.154-3.847.154-2.74 0-6.093-.247-8.955-1.201-4.43-1.478-8.616-5.263-8.616-9.94a8.423 8.423 0 018.432-8.429c3.17 0 5.907 1.755 7.355 4.307l3.66-1.815a11.898 11.898 0 00-2.185-2.922 12.478 12.478 0 00-17.662 0 12.48 12.48 0 00-3.662 8.83c0 1.693.37 3.385 1.08 4.985.644 1.415 1.535 2.739 2.675 3.97 2.002 2.151 4.74 3.876 7.662 4.86 2.799.923 6.924 1.26 10.924.987a22.665 22.665 0 003.352-.494 23.091 23.091 0 003.692-3.662c-.954.093-2.708.274-3.906.37z" fill="#fff"/></svg>