<svg width="88" height="88" fill="none" xmlns="http://www.w3.org/2000/svg"><g clip-path="url(#clip0)"><path d="M44 87.5c24.163 0 43.75-19.587 43.75-43.75S68.163 0 44 0 .25 19.587.25 43.75 19.837 87.5 44 87.5z" fill="#070A0E"/><path fill-rule="evenodd" clip-rule="evenodd" d="M25.524 58.42a4.405 4.405 0 01-2.108-3.754v-8.55c0-1.014.826-1.837 1.841-1.832.324 0 .644.087.924.25L45.47 55.78a3.668 3.668 0 011.824 3.172v8.855a2.197 2.197 0 01-2.196 2.205c-.407 0-.81-.114-1.155-.324L25.524 58.42zm28.753-16.227a3.683 3.683 0 011.824 3.171v17.973c0 .53-.284 1.02-.748 1.277l-4.222 2.376a.738.738 0 01-.17.07v-9.98c0-1.29-.678-2.489-1.79-3.154l-16.94-10.132V32.528c0-1.015.827-1.837 1.842-1.833.324 0 .643.087.923.25l19.28 11.248zm8.444-13.274a3.67 3.67 0 011.828 3.176v26.25a1.487 1.487 0 01-.774 1.29l-4.003 2.162V43.523a3.68 3.68 0 00-1.78-3.15L40.674 29.986V19.302c0-.323.088-.643.245-.923a1.842 1.842 0 012.511-.665l19.29 11.205z" fill="#00D395"/></g><defs><clipPath id="clip0"><path fill="#fff" transform="translate(.25)" d="M0 0h87.5v87.5H0z"/></clipPath></defs></svg>