<svg fill="none" height="88" width="88" xmlns="http://www.w3.org/2000/svg"><path d="m12.375 15.469h63.938v56.203h-63.938z" fill="#fff"/><path d="m44 88c-24.3 0-44-19.7-44-44s19.7-44 44-44 44 19.7 44 44-19.7 44-44 44zm-20.808-68.277-3.469 3.469 18.407 18.407 3.47-3.469zm23.276 30.214 18.408 18.407 3.469-3.469-18.408-18.407-3.468 3.47zm-5.884-5.884 3.474 3.474 3.469-3.47-3.474-3.473-3.469 3.47zm5.928-5.789 3.468 3.469 18.408-18.407-3.469-3.47zm-26.655 26.656 3.469 3.469 18.407-18.409-3.469-3.468-18.407 18.407z" fill="#f5d100"/></svg>