<svg width="88" height="88" fill="none" xmlns="http://www.w3.org/2000/svg"><path d="M44 88c24.3 0 44-19.7 44-44S68.3 0 44 0 0 19.7 0 44s19.7 44 44 44z" fill="#602A52"/><path fill-rule="evenodd" clip-rule="evenodd" d="M55.135 44.931a11.704 11.704 0 00-3.91-5.348l-.02-.022c-.19-.144-.383-.281-.582-.413l-.038-.027a13.378 13.378 0 00-.596-.37l-.055-.032a7.001 7.001 0 00-.61-.315l-.06-.033c-.213-.1-.428-.195-.645-.287l-.071-.027a11.87 11.87 0 00-2.177-.667 8.276 8.276 0 01-1.635 2.086 9.585 9.585 0 014.323 1.43l.074.044.36.246.165.115c.11.082.21.164.323.246l.183.148c.098.082.188.164.282.248l.185.178.255.257.186.2.227.265.177.221.205.274c.069.09.115.161.17.24.055.08.126.184.183.28l.159.262c.049.087.11.186.158.279.055.09.099.191.148.29.047.098.093.18.134.273.05.122.1.244.148.367.26.647.443 1.322.547 2.012l.298 1.105c.125.46 1.287 4.528 3.98 5.898 3.088 1.583 7.176 3.538 8.784 4.312L45.154 71.135V62.59c0-1.348 2.735-2.926 4-3.481l.075-.041c.26-.129.52-.268.765-.416l.107-.054c.548-.33 1.069-.702 1.559-1.113l.13-.118.15-.134c.155-.138.306-.28.452-.427l.077-.073c.16-.162.323-.315.465-.503l.134-.154c.12-.142.235-.287.347-.434l.099-.123c.136-.18.262-.367.388-.555l.044-.055c.169-.265.32-.53.478-.807a12.077 12.077 0 01-1.52-2.34c-.17.473-.383.932-.63 1.372-.103.192-.212.378-.322.558l-.05.074c-.102.153-.21.304-.322.451l-.098.126a7.234 7.234 0 01-.35.418l-.066.077a9.45 9.45 0 01-2.786 2.092l-.2.1c-.538.239-5.285 2.344-5.285 5.546v8.548l-21.301-12.49c1.37-.838 5.373-3.167 8.665-4.193 1.288-.393 4.022 1.294 5.573 2.532l.093.082c.205.192.42.375.645.547l.077.069c.492.393 1.017.746 1.566 1.058l.37.2.073.038c.359.18.725.344 1.1.49l.164.062.11.044c.538.196 1.091.351 1.653.465a8.153 8.153 0 011.685-2.1 9.55 9.55 0 01-2.628-.575l-.145-.054-.28-.112-.141-.06-.27-.126a9.473 9.473 0 01-1.764-1.11l-.848-.755a15.604 15.604 0 00-2.516-1.767c-2.105-1.175-3.866-1.558-5.217-1.142-2.816.869-5.988 2.559-7.924 3.675l21.268-37.508v16.425c0 .583-.875 2.103-3.798 3.394l-.203.11c-.284.136-.56.284-.83.442l-.055.028c-.9.53-1.726 1.177-2.456 1.924l-.027.028c-.277.285-.539.583-.785.894l-.03.041c-.12.152-.235.306-.347.462l-.04.055c-.1.147-.2.297-.294.448l-.033.047c-.096.155-.188.313-.276.473l-.063.112c-.08.153-.158.317-.238.46l-.035.073c-.07.144-.137.29-.2.438l-.068.164c-.063.153-.12.317-.178.464l-.055.164c-.041.118-.08.236-.114.356-.02.066-.041.129-.058.197-.157.549-.271 1.11-.342 1.676l-.027.254a6.997 6.997 0 00-.03.348c-.006.117 0 .232-.02.347-.018.117 0 .142 0 .219v.26c0 .574.044 1.148.132 1.72a11.96 11.96 0 012.64.984 9.076 9.076 0 01-.41-2.549v-.156c0-.207 0-.413.026-.631v-.164c0-.178.035-.358.06-.536v-.077a5.87 5.87 0 01.115-.588l.033-.15a7.52 7.52 0 01.134-.484l.032-.104c.055-.189.123-.372.195-.555l.054-.123c.06-.15.126-.3.194-.451l.052-.115a9.25 9.25 0 01.274-.522l.052-.085c.086-.148.176-.294.27-.438l.069-.1c.112-.165.227-.318.35-.487l.022-.028c.117-.15.24-.295.366-.437l.069-.082a9.498 9.498 0 011.968-1.65l1.006-.464c.54-.238 5.264-2.4 5.264-5.606V18.394l21.435 37.79c-1.914-.922-5.277-2.55-7.902-3.884-1.5-.765-2.521-3.464-2.784-4.432l-.29-1.135a11.245 11.245 0 00-.47-1.79l-.022-.012zm14.52 11.895L46.028 15.192A2.37 2.37 0 0043.958 14a2.37 2.37 0 00-2.064 1.192L18.297 56.828a2.286 2.286 0 00.848 3.107l23.617 13.89a2.406 2.406 0 002.428 0l23.614-13.88a2.286 2.286 0 00.85-3.103l.006-.016h-.005z" fill="#fff"/></svg>