<svg width="88" height="88" fill="none" xmlns="http://www.w3.org/2000/svg"><path d="M44 88c24.3 0 44-19.7 44-44S68.3 0 44 0 0 19.7 0 44s19.7 44 44 44z" fill="#FF060A"/><path d="M66.787 31.4c-2.185-1.55-4.523-3.204-6.809-4.845-.051-.038-.1-.076-.164-.114a3.059 3.059 0 00-.896-.512l-.028-.014c-6.116-1.5-12.231-3.008-18.345-4.523l-16.362-4.038-.43-.116c-.492-.14-1.06-.294-1.668-.218a1.152 1.152 0 00-.464.18l-.153.13a1.886 1.886 0 00-.43.69l-.038.105v.587l.027.09c3.446 9.803 6.984 19.748 10.396 29.37 2.628 7.41 5.36 15.084 8.023 22.62.164.51.632.847 1.214.897h.126a1.419 1.419 0 001.263-.706l10.008-14.8c2.436-3.602 4.875-7.215 7.314-10.816l2.995-4.434a999.461 999.461 0 015.017-7.395l.088-.125v-.156c.038-.448.049-1.37-.684-1.86v.004zm-11.725 5.395c-2.351 1.241-4.75 2.523-7.164 3.792L52.12 36c1.755-1.922 3.587-3.91 5.381-5.857l.038-.037c.15-.207.342-.398.545-.602.136-.14.29-.282.429-.448.935.655 1.881 1.32 2.792 1.974.656.473 1.326.948 2.01 1.421a703.105 703.105 0 00-8.253 4.345zm-6.037-.616c-1.838 2.018-3.683 4.03-5.535 6.035a3570.17 3570.17 0 00-10.842-13.273l-4.864-5.934-.011-.015c-.366-.42-.722-.883-1.075-1.317-.227-.296-.467-.578-.708-.873 1.466.384 2.945.745 4.397 1.088 1.277.31 2.603.63 3.905.963l21.998 5.42c-2.44 2.64-4.892 5.319-7.265 7.908v-.002zm-6.358 24.977c.14-1.346.293-2.73.419-4.088.114-1.09.227-2.204.341-3.267.175-1.708.367-3.474.52-5.205l.035-.305c.136-1.126.245-2.255.328-3.385.148-.084.3-.157.457-.22.189-.087.377-.163.566-.279 2.919-1.554 5.842-3.101 8.77-4.64 2.92-1.537 5.914-3.128 8.883-4.703a2560.907 2560.907 0 00-8.05 11.895c-2.261 3.341-4.585 6.79-6.898 10.185-.908 1.36-1.857 2.742-2.754 4.075-1.012 1.487-2.048 3.01-3.057 4.54.126-1.54.276-3.09.44-4.603zm-17.61-37.33c-.163-.463-.344-.936-.494-1.384 3.412 4.178 6.847 8.38 10.196 12.456 1.731 2.113 3.462 4.215 5.193 6.343.342.397.684.82 1.012 1.23.429.526.858 1.079 1.326 1.604-.153 1.317-.28 2.651-.419 3.93-.087.898-.175 1.797-.276 2.709v.01c-.038.575-.114 1.154-.177 1.718l-.29 2.55-.014.088c-.227 2.59-.506 5.203-.771 7.74-.112 1.05-.213 2.128-.328 3.205-.063-.19-.137-.386-.203-.566a57.748 57.748 0 01-.555-1.575l-1.353-3.806-12.849-36.253" fill="#fff"/></svg>