<svg width="88" height="88" fill="none" xmlns="http://www.w3.org/2000/svg"><path d="M44 88c24.3 0 44-19.7 44-44S68.3 0 44 0 0 19.7 0 44s19.7 44 44 44z" fill="#F60"/><path d="M43.764 14c16.459 0 29.77 13.31 29.77 29.765a30.439 30.439 0 01-1.535 9.439h-8.873V28.196l-19.36 19.36-19.36-19.36v25.008h-8.874A30.443 30.443 0 0114 43.765C14 27.31 27.31 14 43.766 14h-.003.001zm-4.433 37.908l4.516 4.442 4.435-4.439 8.39-8.47v15.73h12.505a29.716 29.716 0 01-25.41 14.278c-10.73 0-20.169-5.726-25.41-14.278h12.5V43.442l8.47 8.47.004-.003z" fill="#fff"/></svg>